HIERARCHY
ROOT hip
{
	OFFSET 0.000000 0.000000 0.000000 
	CHANNELS 6 Xposition Yposition Zposition Xrotation Zrotation Yrotation
	JOINT abdomen
	{
		OFFSET 0.000000 3.402643 0.000000 
		CHANNELS 3 Xrotation Zrotation Yrotation
		JOINT chest
		{
			OFFSET 0.000000 8.438565 -0.680529 
			CHANNELS 3 Xrotation Zrotation Yrotation
			JOINT neck
			{
				OFFSET 0.000000 10.207942 -0.272212 
				CHANNELS 3 Xrotation Zrotation Yrotation
				JOINT head
				{
					OFFSET 0.000000 3.130431 0.000000 
					CHANNELS 3 Xrotation Zrotation Yrotation
					End Site
					{
						OFFSET 0.000000 3.130435 0.000000 
					}
				}
			}
			JOINT lCollar
			{
				OFFSET 3.470700 6.669187 -0.816635 
				CHANNELS 3 Yrotation Zrotation Xrotation
				JOINT lShldr
				{
					OFFSET 3.198488 0.000000 0.000000 
					CHANNELS 3 Zrotation Yrotation Xrotation
					JOINT lForeArm
					{
						OFFSET 10.139888 0.000000 0.000000 
						CHANNELS 3 Yrotation Zrotation Xrotation
						JOINT lHand
						{
							OFFSET 8.370511 0.000000 0.000000 
							CHANNELS 3 Zrotation Yrotation Xrotation
							End Site
							{
								OFFSET 4.083176 0.000000 0.000000 
							}
						}
					}
				}
			}
			JOINT rCollar
			{
				OFFSET -3.470700 6.669187 -0.816635 
				CHANNELS 3 Yrotation Zrotation Xrotation
				JOINT rShldr
				{
					OFFSET -3.198488 0.000000 0.000000 
					CHANNELS 3 Zrotation Yrotation Xrotation
					JOINT rForeArm
					{
						OFFSET -10.139888 0.000000 0.000000 
						CHANNELS 3 Yrotation Zrotation Xrotation
						JOINT rHand
						{
							OFFSET -8.370511 0.000000 0.000000 
							CHANNELS 3 Zrotation Yrotation Xrotation
							End Site
							{
								OFFSET -4.083176 0.000000 0.000000 
							}
						}
					}
				}
			}
		}
	}
	JOINT lThigh
	{
		OFFSET 5.308129 -1.633274 1.361059 
		CHANNELS 3 Xrotation Zrotation Yrotation
		JOINT lShin
		{
			OFFSET -2.041588 -20.007561 0.000000 
			CHANNELS 3 Xrotation Zrotation Yrotation
			JOINT lFoot
			{
				OFFSET 0.000000 -19.190928 -1.224953 
				CHANNELS 3 Xrotation Yrotation Zrotation
				End Site
				{
					OFFSET 0.000000 -2.449906 4.627600 
				}
			}
		}
	}
	JOINT rThigh
	{
		OFFSET -5.308129 -1.633274 1.361059 
		CHANNELS 3 Xrotation Zrotation Yrotation
		JOINT rShin
		{
			OFFSET 2.041588 -20.007561 0.000000 
			CHANNELS 3 Xrotation Zrotation Yrotation
			JOINT rFoot
			{
				OFFSET 0.000000 -19.190928 -1.224953 
				CHANNELS 3 Xrotation Yrotation Zrotation
				End Site
				{
					OFFSET 0.000000 -2.449906 4.627600 
				}
			}
		}
	}
}
MOTION
Frames: 6
Frame Time: 0.011111
2.616950 66.036064 -2.424482 4.345385 -0.558257 -3.989332 20.483431 0.752464 3.889735 -24.365742 -0.694520 0.885458 -23.849669 -5.902328 -0.216602 17.220076 12.015809 -1.828887 2.424333 -4.683778 1.783845 -38.214085 -16.204058 42.385223 -76.908340 7.701773 20.661980 8.524705 12.647240 -44.114639 -2.738486 -1.140572 2.095526 51.315441 29.840530 -3.100367 72.524353 -8.794113 18.359056 -8.534408 -12.637552 29.554546 0.243519 8.208197 1.087541 12.573540 -5.957422 -2.476619 10.290109 30.876963 -9.271570 -0.800166 -8.944273 9.553219 14.839091 5.903432 2.792666 3.379096 -30.323387 6.135190 
2.585072 66.744583 -2.601913 3.284472 -0.763190 -3.741371 22.710579 0.780290 3.775454 -24.844276 -0.710310 0.854231 -23.835426 -6.006263 -0.237538 15.868865 12.429643 -2.015775 2.424333 -4.683778 1.783845 -40.333099 -17.045267 39.109547 -76.011833 7.976682 20.170918 8.524705 12.647240 -44.407600 -2.738486 -1.140572 2.095526 52.037144 30.041115 -3.288472 71.702934 -8.932285 17.948275 -8.534408 -12.637552 28.831888 0.438994 8.368296 2.055146 14.292714 -5.928587 -2.707062 13.152219 27.268797 -9.331548 -0.281971 -8.545639 8.794407 16.519981 5.864736 3.027268 7.658839 -27.503294 7.316092 
2.565524 67.400780 -2.782351 2.398264 -0.686575 -3.439997 24.680557 0.530190 3.603284 -25.293545 -0.677509 0.827582 -23.682266 -6.079653 -0.278944 14.389215 12.658324 -2.248702 2.424333 -4.683778 1.783845 -42.375690 -18.059723 36.016861 -74.912888 8.274620 19.577711 8.524705 12.647240 -44.856823 -2.738486 -1.140572 2.095526 52.707092 30.026831 -3.302706 70.940987 -9.044579 17.555065 -8.534408 -12.637552 28.402201 0.545778 8.262421 2.906163 15.656656 -5.898622 -2.905182 16.686029 25.664223 -10.016731 -0.086866 -8.490332 8.047887 18.305620 5.815363 3.269426 11.235781 -24.866507 7.914772 
2.543872 68.035912 -2.973013 1.706489 -0.550513 -3.162353 26.426018 0.223638 3.416445 -25.752556 -0.623434 0.817798 -23.638845 -5.977769 -0.393533 13.365129 12.560717 -2.535038 2.424333 -4.683778 1.783845 -44.253056 -19.062365 33.094471 -73.769760 8.542717 18.988716 8.524705 12.647240 -45.364639 -2.738486 -1.140572 2.095526 53.385235 29.836359 -3.126197 70.290115 -9.127505 17.234348 -8.534408 -12.637552 28.167826 0.517089 8.174216 3.235200 16.591398 -5.897520 -3.047252 19.056271 24.677713 -10.430847 -0.145830 -8.470371 7.545647 20.044157 5.756785 3.514535 13.565157 -23.936853 8.396546 
2.527633 68.658730 -3.162172 1.277613 -0.334258 -2.967185 27.780735 -0.159233 3.218546 -26.113928 -0.581792 0.797691 -23.576412 -5.889701 -0.492819 12.721802 12.540820 -2.751805 2.424333 -4.683778 1.783845 -45.954807 -20.004942 30.361605 -72.686974 8.758080 18.427607 8.524705 12.647240 -45.970108 -2.738486 -1.140572 2.095526 54.003021 29.636267 -2.756622 69.596367 -9.206470 16.890251 -8.534408 -12.637552 28.079935 0.370577 7.966756 2.865900 16.993845 -5.869589 -3.090611 20.344435 23.967247 -10.531017 -0.525432 -8.535043 7.255654 21.597708 5.694983 3.731544 15.363577 -23.640369 8.850774 
2.511694 69.257477 -3.289381 1.033795 -0.044560 -2.940737 28.598642 -0.638983 3.129402 -26.182259 -0.517992 0.830154 -23.507963 -5.887079 -0.545502 12.383064 12.688092 -2.867230 2.424333 -4.683778 1.783845 -47.480892 -20.985643 28.046396 -71.554787 8.950526 17.861826 8.524705 12.647240 -46.224010 -2.738486 -1.140572 2.095526 54.560703 29.446165 -2.325892 68.710388 -9.290739 16.456762 -8.534408 -12.637552 28.216656 0.312067 7.688616 2.176841 16.932613 -5.869020 -3.064806 20.393394 23.374382 -10.285608 -1.005065 -8.699611 7.276607 22.805050 5.658352 3.882516 16.598820 -23.284382 9.086971 
